<svg width="2779" height="1000" viewBox="0 0 2779 1000" fill="none" xmlns="http://www.w3.org/2000/svg">
<rect width="2779" height="1000" fill="#3B3B3B"/>
<path d="M316.394 298.83L441.953 298.797L513.452 398.132L440.846 485.593L316.394 298.83Z" fill="#DE7833"/>
<path d="M798.198 781H672.62L551.356 600.388L621.948 509.637L798.198 781Z" fill="white"/>
<path d="M702.514 219L270 780.967H413.02L552.552 600.058L625.807 507.96L831.791 219H702.514Z" fill="white"/>
<path d="M775.036 298.665H641.225L702.235 219.132H832L775.036 298.665Z" fill="white"/>
<path d="M1008.4 442V432.1C1014 432.1 1018.4 431.7 1021.6 430.9C1024.8 430.1 1027.4 428.6 1029.4 426.4C1031.6 424 1033.6 420.4 1035.4 415.6L1102.6 244H1132.3L1195.3 417.1C1197.1 421.5 1198.7 424.8 1200.1 427C1201.7 429.2 1203.9 430.6 1206.7 431.2C1209.5 431.8 1213.5 432.1 1218.7 432.1V442H1125.7V432.1H1140.1C1144.3 432.1 1146.8 431 1147.6 428.8C1148.6 426.6 1148.4 423.5 1147 419.5L1099.6 289H1098.7L1051 420.4C1049.8 424.6 1049.7 427.6 1050.7 429.4C1051.9 431.2 1054.6 432.1 1058.8 432.1H1070.8V442H1008.4ZM1063 372.7L1063.9 361.3H1133.5L1134.4 372.7H1063ZM1332.6 442V432.1H1344C1348.6 432.1 1351.1 430.8 1351.5 428.2C1352.1 425.4 1351 421.7 1348.2 417.1L1313.7 359.8H1307.4V349.9L1258.5 269.2C1255.9 264.6 1253.6 261.3 1251.6 259.3C1249.8 257.1 1247.6 255.7 1245 255.1C1242.4 254.3 1238.7 253.9 1233.9 253.9V244H1328.4V253.9H1320C1316 253.9 1313.4 255 1312.2 257.2C1311 259.4 1311.5 262.4 1313.7 266.2L1342.8 316H1348.2L1348.5 325.3L1398.6 407.5C1402.6 413.9 1406.1 418.9 1409.1 422.5C1412.3 426.1 1415.7 428.6 1419.3 430C1423.1 431.4 1427.8 432.1 1433.4 432.1V442H1332.6ZM1232.1 442V432.1C1237.3 432.1 1241.5 431.5 1244.7 430.3C1247.9 429.1 1250.7 427.3 1253.1 424.9C1255.5 422.5 1258 419.4 1260.6 415.6L1313.7 340.6L1319.1 350.5L1274.4 419.2C1272.2 423 1271.6 426.1 1272.6 428.5C1273.8 430.9 1276.4 432.1 1280.4 432.1H1292.4V442H1232.1ZM1341.6 336.7L1341.3 319.3L1371.6 271C1374.2 267 1375.2 263.2 1374.6 259.6C1374 255.8 1371.1 253.9 1365.9 253.9H1359V244H1417.8V253.9C1412.6 253.9 1408.2 254.4 1404.6 255.4C1401.2 256.4 1398.1 258.3 1395.3 261.1C1392.5 263.9 1389.3 267.8 1385.7 272.8L1341.6 336.7ZM1444.22 442V432.1C1451.02 432.1 1455.92 431.7 1458.92 430.9C1461.92 430.1 1463.72 428.5 1464.32 426.1C1465.12 423.7 1465.52 420.1 1465.52 415.3V271.3C1465.52 266.1 1465.02 262.3 1464.02 259.9C1463.22 257.5 1461.22 255.9 1458.02 255.1C1455.02 254.3 1450.42 253.9 1444.22 253.9V244H1535.12V253.9C1528.92 253.9 1524.32 254.3 1521.32 255.1C1518.32 255.9 1516.32 257.5 1515.32 259.9C1514.52 262.3 1514.12 266.1 1514.12 271.3V415.3C1514.12 420.3 1514.52 424.1 1515.32 426.7C1516.32 429.1 1518.32 430.6 1521.32 431.2C1524.32 431.8 1528.92 432.1 1535.12 432.1V442H1444.22ZM1630.24 445.6C1622.44 445.6 1615.54 444.8 1609.54 443.2C1603.74 441.8 1598.74 440.4 1594.54 439C1590.34 437.4 1586.84 436.6 1584.04 436.6C1581.64 436.6 1579.74 437.1 1578.34 438.1C1576.94 439.1 1575.84 440.4 1575.04 442H1566.04L1562.14 386.5H1573.54C1574.54 391.7 1576.54 397.3 1579.54 403.3C1582.54 409.1 1586.44 414.6 1591.24 419.8C1596.04 424.8 1601.64 428.9 1608.04 432.1C1614.44 435.1 1621.44 436.6 1629.04 436.6C1635.44 436.6 1641.54 435.5 1647.34 433.3C1653.14 430.9 1657.84 427.2 1661.44 422.2C1665.04 417.2 1666.84 410.8 1666.84 403C1666.84 394.2 1664.04 387.1 1658.44 381.7C1652.84 376.3 1644.74 371.7 1634.14 367.9L1615.84 361.3C1605.24 357.5 1596.04 353 1588.24 347.8C1580.44 342.4 1574.44 336 1570.24 328.6C1566.24 321 1564.24 311.8 1564.24 301C1564.24 288.6 1567.04 277.9 1572.64 268.9C1578.44 259.7 1586.34 252.7 1596.34 247.9C1606.54 242.9 1618.24 240.4 1631.44 240.4C1638.44 240.4 1644.24 241.1 1648.84 242.5C1653.64 243.7 1657.84 245 1661.44 246.4C1665.04 247.8 1668.54 248.5 1671.94 248.5C1674.74 248.5 1676.64 248 1677.64 247C1678.64 245.8 1679.34 244.4 1679.74 242.8H1688.74L1691.74 294.7H1680.64C1678.64 285.3 1675.24 277.2 1670.44 270.4C1665.64 263.6 1659.94 258.4 1653.34 254.8C1646.74 251.2 1639.34 249.4 1631.14 249.4C1620.94 249.4 1612.34 252.2 1605.34 257.8C1598.54 263.4 1595.14 270.6 1595.14 279.4C1595.14 286.4 1597.24 292.1 1601.44 296.5C1605.84 300.9 1610.94 304.4 1616.74 307C1622.54 309.4 1627.54 311.4 1631.74 313L1654.84 321.4C1664.04 324.6 1672.04 328.9 1678.84 334.3C1685.64 339.5 1690.94 345.9 1694.74 353.5C1698.74 360.9 1700.74 369.7 1700.74 379.9C1700.74 390.7 1698.84 400.2 1695.04 408.4C1691.44 416.6 1686.34 423.5 1679.74 429.1C1673.14 434.5 1665.54 438.6 1656.94 441.4C1648.54 444.2 1639.64 445.6 1630.24 445.6Z" fill="#DE7833"/>
<path d="M1008.4 745V735.1C1014 735.1 1018.4 734.7 1021.6 733.9C1024.8 733.1 1027.4 731.6 1029.4 729.4C1031.6 727 1033.6 723.4 1035.4 718.6L1102.6 547H1132.3L1195.3 720.1C1197.1 724.5 1198.7 727.8 1200.1 730C1201.7 732.2 1203.9 733.6 1206.7 734.2C1209.5 734.8 1213.5 735.1 1218.7 735.1V745H1125.7V735.1H1140.1C1144.3 735.1 1146.8 734 1147.6 731.8C1148.6 729.6 1148.4 726.5 1147 722.5L1099.6 592H1098.7L1051 723.4C1049.8 727.6 1049.7 730.6 1050.7 732.4C1051.9 734.2 1054.6 735.1 1058.8 735.1H1070.8V745H1008.4ZM1063 675.7L1063.9 664.3H1133.5L1134.4 675.7H1063ZM1239 745V735.1C1245.8 735.1 1250.7 734.8 1253.7 734.2C1256.7 733.4 1258.5 731.8 1259.1 729.4C1259.9 727 1260.3 723.3 1260.3 718.3V574.3C1260.3 569.1 1259.9 565.3 1259.1 562.9C1258.3 560.5 1256.4 558.9 1253.4 558.1C1250.4 557.3 1245.6 556.9 1239 556.9V547H1330.2V556.9C1323.8 556.9 1319.1 557.3 1316.1 558.1C1313.1 558.9 1311.1 560.5 1310.1 562.9C1309.3 565.3 1308.9 569.1 1308.9 574.3V715.9C1308.9 721.1 1309.3 725 1310.1 727.6C1311.1 730.2 1313.2 731.9 1316.4 732.7C1319.6 733.3 1324.4 733.6 1330.8 733.6C1341.6 733.6 1350.8 732.5 1358.4 730.3C1366 727.9 1372.2 723.7 1377 717.7C1382 711.7 1385.7 703.2 1388.1 692.2H1399.5L1395.9 745H1239ZM1423.13 745V735.1C1429.93 735.1 1434.83 734.8 1437.83 734.2C1440.83 733.4 1442.63 731.8 1443.23 729.4C1444.03 727 1444.43 723.3 1444.43 718.3V574.3C1444.43 569.1 1444.03 565.3 1443.23 562.9C1442.43 560.5 1440.53 558.9 1437.53 558.1C1434.53 557.3 1429.73 556.9 1423.13 556.9V547H1514.33V556.9C1507.93 556.9 1503.23 557.3 1500.23 558.1C1497.23 558.9 1495.23 560.5 1494.23 562.9C1493.43 565.3 1493.03 569.1 1493.03 574.3V715.9C1493.03 721.1 1493.43 725 1494.23 727.6C1495.23 730.2 1497.33 731.9 1500.53 732.7C1503.73 733.3 1508.53 733.6 1514.93 733.6C1525.73 733.6 1534.93 732.5 1542.53 730.3C1550.13 727.9 1556.33 723.7 1561.13 717.7C1566.13 711.7 1569.83 703.2 1572.23 692.2H1583.63L1580.03 745H1423.13ZM1607.25 745V735.1C1614.05 735.1 1618.95 734.7 1621.95 733.9C1624.95 733.1 1626.75 731.5 1627.35 729.1C1628.15 726.7 1628.55 723.1 1628.55 718.3V574.3C1628.55 569.1 1628.05 565.3 1627.05 562.9C1626.25 560.5 1624.25 558.9 1621.05 558.1C1618.05 557.3 1613.45 556.9 1607.25 556.9V547H1698.15V556.9C1691.95 556.9 1687.35 557.3 1684.35 558.1C1681.35 558.9 1679.35 560.5 1678.35 562.9C1677.55 565.3 1677.15 569.1 1677.15 574.3V718.3C1677.15 723.3 1677.55 727.1 1678.35 729.7C1679.35 732.1 1681.35 733.6 1684.35 734.2C1687.35 734.8 1691.95 735.1 1698.15 735.1V745H1607.25ZM1717.07 745V735.1C1722.67 735.1 1727.07 734.7 1730.27 733.9C1733.47 733.1 1736.07 731.6 1738.07 729.4C1740.27 727 1742.27 723.4 1744.07 718.6L1811.27 547H1840.97L1903.97 720.1C1905.77 724.5 1907.37 727.8 1908.77 730C1910.37 732.2 1912.57 733.6 1915.37 734.2C1918.17 734.8 1922.17 735.1 1927.37 735.1V745H1834.37V735.1H1848.77C1852.97 735.1 1855.47 734 1856.27 731.8C1857.27 729.6 1857.07 726.5 1855.67 722.5L1808.27 592H1807.37L1759.67 723.4C1758.47 727.6 1758.37 730.6 1759.37 732.4C1760.57 734.2 1763.27 735.1 1767.47 735.1H1779.47V745H1717.07ZM1771.67 675.7L1772.57 664.3H1842.17L1843.07 675.7H1771.67ZM2087.17 747.1L1980.97 584.8H1980.37V719.5C1980.37 725.1 1981.37 729.1 1983.37 731.5C1985.57 733.9 1989.57 735.1 1995.37 735.1H2004.67V745H1946.47V735.1H1953.97C1963.37 735.1 1968.07 729.9 1968.07 719.5V574C1968.07 569 1967.57 565.3 1966.57 562.9C1965.77 560.5 1963.77 558.9 1960.57 558.1C1957.57 557.3 1952.77 556.9 1946.17 556.9V547H2014.57L2106.07 689.5H2106.97V571.3C2106.97 561.7 2101.87 556.9 2091.67 556.9H2082.37V547H2139.67V556.9H2133.37C2124.17 556.9 2119.57 561.7 2119.57 571.3V747.1H2087.17ZM2262.53 748.6C2241.73 748.6 2223.63 744.8 2208.23 737.2C2192.83 729.6 2180.93 718.4 2172.53 703.6C2164.33 688.6 2160.23 670.1 2160.23 648.1C2160.23 625.7 2164.43 606.8 2172.83 591.4C2181.23 575.8 2193.23 563.9 2208.83 555.7C2224.43 547.5 2243.03 543.4 2264.63 543.4C2275.83 543.4 2284.73 544.3 2291.33 546.1C2298.13 547.9 2303.53 549.8 2307.53 551.8C2311.53 553.6 2314.93 554.5 2317.73 554.5C2319.53 554.5 2321.13 554.1 2322.53 553.3C2324.13 552.5 2325.23 551.3 2325.83 549.7L2326.73 547H2335.13L2338.13 603.7H2327.63C2326.23 596.3 2323.93 589.6 2320.73 583.6C2317.73 577.4 2313.83 572.1 2309.03 567.7C2304.43 563.3 2298.93 559.9 2292.53 557.5C2286.33 554.9 2279.33 553.6 2271.53 553.6C2261.13 553.6 2252.33 555.8 2245.13 560.2C2238.13 564.4 2232.33 570 2227.73 577C2223.33 584 2219.93 591.7 2217.53 600.1C2215.33 608.3 2213.83 616.5 2213.03 624.7C2212.23 632.9 2211.83 640.2 2211.83 646.6C2211.83 659.8 2212.93 672 2215.13 683.2C2217.53 694.4 2221.13 704.1 2225.93 712.3C2230.93 720.5 2237.13 726.9 2244.53 731.5C2252.13 735.9 2261.13 738.1 2271.53 738.1C2279.93 738.1 2287.33 737 2293.73 734.8C2300.33 732.4 2306.13 729.1 2311.13 724.9C2316.13 720.7 2320.33 715.9 2323.73 710.5C2327.13 705.1 2329.93 699.5 2332.13 693.7L2340.83 697.3C2338.43 704.1 2335.23 710.6 2331.23 716.8C2327.43 723 2322.43 728.5 2316.23 733.3C2310.03 738.1 2302.53 741.9 2293.73 744.7C2284.93 747.3 2274.53 748.6 2262.53 748.6ZM2366.02 745V735.1C2372.42 735.1 2377.12 734.7 2380.12 733.9C2383.12 733.1 2385.02 731.5 2385.82 729.1C2386.82 726.7 2387.32 723.1 2387.32 718.3V574C2387.32 569 2386.82 565.3 2385.82 562.9C2385.02 560.5 2383.12 558.9 2380.12 558.1C2377.12 557.3 2372.42 556.9 2366.02 556.9V547H2524.72V594.7H2513.32C2510.92 584.7 2507.92 577.1 2504.32 571.9C2500.92 566.5 2496.42 562.9 2490.82 561.1C2485.22 559.1 2477.72 558.1 2468.32 558.1H2447.02C2443.02 558.1 2440.12 558.9 2438.32 560.5C2436.72 561.9 2435.92 564.5 2435.92 568.3V634.9H2470.42C2476.02 634.9 2480.32 634.2 2483.32 632.8C2486.32 631.4 2488.52 628.7 2489.92 624.7C2491.52 620.7 2492.82 615 2493.82 607.6H2503.12V675.4H2493.82C2492.82 667.8 2491.52 662.1 2489.92 658.3C2488.52 654.3 2486.32 651.6 2483.32 650.2C2480.32 648.8 2476.02 648.1 2470.42 648.1H2435.92V714.1C2435.92 719.5 2436.52 723.7 2437.72 726.7C2438.92 729.5 2441.72 731.4 2446.12 732.4C2450.52 733.4 2457.62 733.9 2467.42 733.9C2477.42 733.9 2485.92 732.8 2492.92 730.6C2499.92 728.2 2505.72 724 2510.32 718C2514.92 712 2518.32 703.4 2520.52 692.2H2531.92L2528.32 745H2366.02Z" fill="white"/>
</svg>
